<?xml version="1.0"?>
<svg xmlns="http://www.w3.org/2000/svg" xmlns:xlink="http://www.w3.org/1999/xlink" version="1.1" id="Layer_1" x="0px" y="0px" viewBox="0 0 512 512" style="enable-background:new 0 0 512 512;" xml:space="preserve" width="512px" height="512px" class=""><g><path style="fill:#DBCBFF" d="M353.645,291.158H158.353c-47.914,0-86.754,38.842-86.754,86.754v38.98l-57.363,47.129l339.268,0.645  c47.968,0.078,86.895-38.786,86.895-86.754l0,0C440.399,330,401.558,291.158,353.645,291.158z" data-original="#CEE8FA" class="active-path" data-old_color="#dbcbff"/><g>
	<path style="fill:#9371FE" d="M353.651,478.901c-0.001,0-0.003,0-0.004,0h-0.167l-339.271-0.645   c-6.007-0.011-11.36-3.792-13.379-9.449c-2.02-5.657-0.27-11.972,4.369-15.785l52.166-42.857v-32.252   c0-55.686,45.303-100.989,100.989-100.989h195.291c55.686,0,100.989,45.303,100.989,100.989c0,26.978-10.505,52.341-29.58,71.414   C405.979,468.397,380.622,478.901,353.651,478.901z M53.893,449.861l299.755,0.569c19.367,0.001,37.576-7.542,51.274-21.237   c13.697-13.697,21.241-31.909,21.241-51.282c0-39.988-32.533-72.519-72.519-72.519H158.353c-39.988,0-72.519,32.533-72.519,72.519   v38.981c0,4.259-1.907,8.295-5.199,10.999L53.893,449.861z" data-original="#2D527C" class="" data-old_color="#9371fe"/>
	<path style="fill:#9371FE" d="M345.307,392.147h-27.249c-7.861,0-14.235-6.374-14.235-14.235s6.374-14.235,14.235-14.235h27.249   c7.861,0,14.235,6.374,14.235,14.235S353.167,392.147,345.307,392.147z" data-original="#2D527C" class="" data-old_color="#9371fe"/>
	<path style="fill:#9371FE" d="M269.297,392.147h-27.249c-7.861,0-14.235-6.374-14.235-14.235s6.374-14.235,14.235-14.235h27.249   c7.861,0,14.235,6.374,14.235,14.235S277.159,392.147,269.297,392.147z" data-original="#2D527C" class="" data-old_color="#9371fe"/>
	<path style="fill:#9371FE" d="M193.29,392.147h-27.249c-7.861,0-14.235-6.374-14.235-14.235s6.374-14.235,14.235-14.235h27.249   c7.861,0,14.235,6.374,14.235,14.235S201.15,392.147,193.29,392.147z" data-original="#2D527C" class="" data-old_color="#9371fe"/>
	<path style="fill:#9371FE" d="M345.958,148.323H166.693c-7.861,0-14.235-6.374-14.235-14.235s6.374-14.235,14.235-14.235h179.266   c7.861,0,14.235,6.374,14.235,14.235S353.819,148.323,345.958,148.323z" data-original="#2D527C" class="" data-old_color="#9371fe"/>
	<path style="fill:#9371FE" d="M158.354,235.077c-26.947,0-52.279-10.48-71.35-29.521c-19.113-19.082-29.637-44.463-29.637-71.468   c0-55.686,45.303-100.989,100.989-100.989h195.291c55.686,0,100.989,45.303,100.989,100.989v9.555   c0,7.861-6.374,14.235-14.235,14.235s-14.235-6.374-14.235-14.235v-9.555c0-39.988-32.533-72.519-72.519-72.519H158.355   c-39.988,0-72.519,32.533-72.519,72.519c0,19.392,7.559,37.619,21.281,51.321c13.695,13.671,31.886,21.199,51.233,21.199   c0.041,0,0.081,0,0.121,0l339.265-0.645c0.009,0,0.018,0,0.027,0c7.851,0,14.219,6.356,14.235,14.208   c0.016,7.861-6.346,14.246-14.208,14.262l-339.268,0.645C158.467,235.077,158.411,235.077,158.354,235.077z" data-original="#2D527C" class="" data-old_color="#9371fe"/>
</g></g> </svg>
